<svg width="281" height="192" viewBox="0 0 281 192" fill="none" xmlns="http://www.w3.org/2000/svg">
<g clip-path="url(#clip0_3821_6252)">
<path d="M40.5939 125.231C61.0408 125.231 77.6163 108.683 77.6163 88.2698C77.6163 67.8568 61.0408 51.3088 40.5939 51.3088C20.147 51.3088 3.57153 67.8568 3.57153 88.2698C3.57153 108.683 20.147 125.231 40.5939 125.231Z" fill="#4D4D4D" stroke="black" stroke-width="10" stroke-miterlimit="10"/>
<path d="M240.406 125.231C260.853 125.231 277.428 108.683 277.428 88.2698C277.428 67.8568 260.853 51.3088 240.406 51.3088C219.959 51.3088 203.384 67.8568 203.384 88.2698C203.384 108.683 219.959 125.231 240.406 125.231Z" fill="#4D4D4D" stroke="black" stroke-width="10" stroke-miterlimit="10"/>
<path d="M140.504 178.807C188.976 178.807 228.27 139.578 228.27 91.1865C228.27 42.7949 188.976 3.56567 140.504 3.56567C92.0315 3.56567 52.7371 42.7949 52.7371 91.1865C52.7371 139.578 92.0315 178.807 140.504 178.807Z" fill="#1A1A1A" stroke="black" stroke-width="10" stroke-miterlimit="10"/>
<path d="M140.504 188.434C178.841 188.434 209.92 157.407 209.92 119.134C209.92 80.8598 178.841 49.8328 140.504 49.8328C102.166 49.8328 71.0875 80.8598 71.0875 119.134C71.0875 157.407 102.166 188.434 140.504 188.434Z" fill="#333333" stroke="black" stroke-width="10" stroke-miterlimit="10"/>
<path d="M140.504 164.11C178.841 164.11 209.92 133.083 209.92 94.8092C209.92 56.5353 178.841 25.5083 140.504 25.5083C102.166 25.5083 71.0875 56.5353 71.0875 94.8092C71.0875 133.083 102.166 164.11 140.504 164.11Z" fill="#4D4D4D" stroke="black" stroke-width="10" stroke-miterlimit="10"/>
<path d="M80.8235 122.571C86.116 133.917 94.5437 143.518 105.115 150.246C115.687 156.973 127.963 160.547 140.5 160.547C153.037 160.547 165.313 156.973 175.885 150.246C186.456 143.518 194.884 133.917 200.177 122.571C185.298 116.709 164.068 113.036 140.504 113.036C116.939 113.036 95.7167 116.709 80.8235 122.571Z" fill="#333333"/>
<path d="M110.01 63.2822H132.075L126.66 111.489H115.632L110.01 63.2822Z" fill="black"/>
<path d="M121.046 134.131C125.989 134.131 129.996 130.13 129.996 125.195C129.996 120.26 125.989 116.26 121.046 116.26C116.103 116.26 112.096 120.26 112.096 125.195C112.096 130.13 116.103 134.131 121.046 134.131Z" fill="black"/>
<path d="M148.932 63.2822H170.99L165.576 111.489H154.547L148.932 63.2822Z" fill="black"/>
<path d="M159.961 134.131C164.904 134.131 168.911 130.13 168.911 125.195C168.911 120.26 164.904 116.26 159.961 116.26C155.018 116.26 151.011 120.26 151.011 125.195C151.011 130.13 155.018 134.131 159.961 134.131Z" fill="black"/>
<path d="M176.933 44.3345L147.897 58.2688" stroke="black" stroke-width="7" stroke-miterlimit="10"/>
<path d="M103.388 56.6288L133.789 45.9819" stroke="black" stroke-width="7" stroke-miterlimit="10"/>
</g>
<defs>
<clipPath id="clip0_3821_6252">
<rect width="281" height="192" fill="white"/>
</clipPath>
</defs>
</svg>
